<svg width="22" height="6" viewBox="0 0 22 6" fill="none" xmlns="http://www.w3.org/2000/svg">
<path d="M2.53846 5.65086C1.86522 5.65086 1.21955 5.39708 0.743498 4.94534C0.267444 4.4936 0 3.88091 0 3.24206C0 2.6032 0.267444 1.99051 0.743498 1.53877C1.21955 1.08704 1.86522 0.833252 2.53846 0.833252C3.2117 0.833252 3.85737 1.08704 4.33343 1.53877C4.80948 1.99051 5.07692 2.6032 5.07692 3.24206C5.07692 3.88091 4.80948 4.4936 4.33343 4.94534C3.85737 5.39708 3.2117 5.65086 2.53846 5.65086ZM11 5.65086C10.3268 5.65086 9.68109 5.39708 9.20504 4.94534C8.72898 4.4936 8.46154 3.88091 8.46154 3.24206C8.46154 2.6032 8.72898 1.99051 9.20504 1.53877C9.68109 1.08704 10.3268 0.833252 11 0.833252C11.6732 0.833252 12.3189 1.08704 12.795 1.53877C13.271 1.99051 13.5385 2.6032 13.5385 3.24206C13.5385 3.88091 13.271 4.4936 12.795 4.94534C12.3189 5.39708 11.6732 5.65086 11 5.65086ZM19.4615 5.65086C18.7883 5.65086 18.1426 5.39708 17.6666 4.94534C17.1905 4.4936 16.9231 3.88091 16.9231 3.24206C16.9231 2.6032 17.1905 1.99051 17.6666 1.53877C18.1426 1.08704 18.7883 0.833252 19.4615 0.833252C20.1348 0.833252 20.7804 1.08704 21.2565 1.53877C21.7326 1.99051 22 2.6032 22 3.24206C22 3.88091 21.7326 4.4936 21.2565 4.94534C20.7804 5.39708 20.1348 5.65086 19.4615 5.65086Z" fill="white"/>
</svg>
