<svg width="34" height="34" viewBox="0 0 34 34" fill="none" xmlns="http://www.w3.org/2000/svg">
<circle cx="17" cy="17" r="17" fill="#FF8700" fill-opacity="0.41"/>
<path fill-rule="evenodd" clip-rule="evenodd" d="M7.22596 12.219C7.29741 12.1496 7.38229 12.0945 7.47573 12.0569C7.56917 12.0193 7.66935 12 7.77052 12C7.87168 12 7.97186 12.0193 8.0653 12.0569C8.15875 12.0945 8.24362 12.1496 8.31507 12.219L17.0002 20.6374L25.6853 12.219C25.7568 12.1497 25.8417 12.0947 25.9352 12.0572C26.0286 12.0197 26.1288 12.0004 26.2299 12.0004C26.331 12.0004 26.4312 12.0197 26.5246 12.0572C26.618 12.0947 26.7029 12.1497 26.7744 12.219C26.846 12.2883 26.9027 12.3706 26.9414 12.4611C26.9801 12.5517 27 12.6487 27 12.7467C27 12.8447 26.9801 12.9418 26.9414 13.0323C26.9027 13.1229 26.846 13.2052 26.7744 13.2745L17.5448 22.2192C17.4733 22.2886 17.3884 22.3437 17.295 22.3812C17.2015 22.4188 17.1014 22.4381 17.0002 22.4381C16.899 22.4381 16.7989 22.4188 16.7054 22.3812C16.612 22.3437 16.5271 22.2886 16.4557 22.2192L7.22596 13.2745C7.15434 13.2052 7.09751 13.123 7.05873 13.0324C7.01996 12.9419 7 12.8448 7 12.7467C7 12.6487 7.01996 12.5516 7.05873 12.461C7.09751 12.3705 7.15434 12.2882 7.22596 12.219Z" fill="white"/>
</svg>
