<svg width="159" height="72" viewBox="0 0 159 72" fill="none" xmlns="http://www.w3.org/2000/svg">
<path d="M1.91985 40V10.2133H10.0065V33.4842H22.0492V40H1.91985ZM35.1308 40.4072C32.7455 40.4072 30.6899 39.9515 28.964 39.0401C27.2478 38.1189 25.9242 36.8003 24.9934 35.084C24.0723 33.3581 23.6117 31.2928 23.6117 28.8882C23.6117 26.5805 24.0771 24.5637 25.0079 22.8377C25.9388 21.1118 27.2526 19.7689 28.9494 18.809C30.6463 17.849 32.6485 17.3691 34.9562 17.3691C36.6434 17.3691 38.1705 17.6309 39.5377 18.1545C40.9049 18.6781 42.0733 19.4392 43.0429 20.4379C44.0125 21.4269 44.7591 22.6293 45.2827 24.0449C45.8063 25.4606 46.0681 27.0556 46.0681 28.83V30.6917H26.1133V26.2702H38.6796C38.6699 25.6302 38.5051 25.0679 38.1851 24.583C37.8748 24.0885 37.453 23.7055 36.9197 23.434C36.3961 23.1529 35.7998 23.0123 35.1308 23.0123C34.4811 23.0123 33.8848 23.1529 33.3418 23.434C32.7988 23.7055 32.3625 24.0837 32.0328 24.5685C31.7129 25.0533 31.5432 25.6205 31.5238 26.2702V31.0407C31.5238 31.7582 31.6741 32.3982 31.9747 32.9606C32.2752 33.5229 32.7067 33.9641 33.2691 34.2841C33.8315 34.6041 34.5102 34.7641 35.3053 34.7641C35.858 34.7641 36.3622 34.6865 36.8179 34.5313C37.2833 34.3762 37.6809 34.1532 38.0105 33.8623C38.3402 33.5617 38.5826 33.203 38.7378 32.786H46.0681C45.816 34.3374 45.2197 35.6852 44.2791 36.8293C43.3386 37.9638 42.0926 38.8462 40.5413 39.4764C38.9996 40.097 37.1961 40.4072 35.1308 40.4072ZM59.0988 48.8429C56.859 48.8429 54.9391 48.523 53.3393 47.883C51.7491 47.2528 50.5128 46.3801 49.6305 45.265C48.7578 44.1597 48.2681 42.8895 48.1615 41.4544H55.8991C55.9766 41.9295 56.1705 42.3125 56.4808 42.6034C56.7911 42.8943 57.1886 43.1028 57.6735 43.2288C58.168 43.3646 58.7206 43.4325 59.3315 43.4325C60.369 43.4325 61.2271 43.1804 61.9058 42.6762C62.5943 42.1719 62.9385 41.2605 62.9385 39.9418V36.1603H62.7058C62.4149 36.9166 61.9689 37.5614 61.3677 38.0947C60.7665 38.6183 60.0442 39.0207 59.2006 39.3019C58.357 39.5734 57.4311 39.7091 56.4227 39.7091C54.8325 39.7091 53.3683 39.3407 52.0303 38.6037C50.7019 37.8668 49.6353 36.6984 48.8305 35.0986C48.0354 33.4987 47.6379 31.4092 47.6379 28.83C47.6379 26.1344 48.0548 23.9431 48.8887 22.256C49.7323 20.5688 50.8182 19.3326 52.1466 18.5472C53.4847 17.7618 54.8907 17.3691 56.3645 17.3691C57.4698 17.3691 58.4395 17.563 59.2733 17.9508C60.1072 18.329 60.8053 18.838 61.3677 19.478C61.9301 20.1083 62.3567 20.8015 62.6476 21.5578H62.8221V17.66H70.8506V39.9418C70.8506 41.8326 70.3609 43.4373 69.3816 44.756C68.412 46.0844 67.0448 47.0976 65.2801 47.7957C63.5154 48.4939 61.455 48.8429 59.0988 48.8429ZM59.3897 34.0077C60.1266 34.0077 60.7569 33.8041 61.2804 33.3969C61.8137 32.98 62.221 32.3885 62.5022 31.6225C62.7931 30.8468 62.9385 29.916 62.9385 28.83C62.9385 27.7246 62.7931 26.7792 62.5022 25.9938C62.221 25.1988 61.8137 24.5927 61.2804 24.1758C60.7569 23.7492 60.1266 23.5359 59.3897 23.5359C58.6528 23.5359 58.0225 23.7492 57.4989 24.1758C56.985 24.5927 56.5875 25.1988 56.3063 25.9938C56.0348 26.7792 55.8991 27.7246 55.8991 28.83C55.8991 29.9353 56.0348 30.8759 56.3063 31.6516C56.5875 32.4176 56.985 33.0042 57.4989 33.4114C58.0225 33.809 58.6528 34.0077 59.3897 34.0077Z" fill="#FFB703"/>
<path d="M73.8094 40V10.2133H86.6665C88.8773 10.2133 90.8117 10.6496 92.4697 11.5223C94.1278 12.3949 95.4174 13.6215 96.3385 15.202C97.2596 16.7825 97.7202 18.6296 97.7202 20.7434C97.7202 22.8765 97.2451 24.7236 96.2949 26.2847C95.3543 27.8458 94.0308 29.0481 92.3243 29.8917C90.6274 30.7353 88.6446 31.1571 86.3757 31.1571H78.6963V24.8739H84.7467C85.6969 24.8739 86.5066 24.7091 87.1756 24.3794C87.8543 24.0401 88.3731 23.5601 88.7318 22.9395C89.1003 22.319 89.2845 21.5869 89.2845 20.7434C89.2845 19.8901 89.1003 19.1629 88.7318 18.5617C88.3731 17.9508 87.8543 17.4854 87.1756 17.1655C86.5066 16.8358 85.6969 16.6709 84.7467 16.6709H81.896V40H73.8094ZM107.824 10.2133V40H99.7954V10.2133H107.824ZM117.131 40.3491C115.706 40.3491 114.445 40.1164 113.35 39.6509C112.264 39.1758 111.41 38.4583 110.79 37.4984C110.169 36.5385 109.859 35.3167 109.859 33.8332C109.859 32.6115 110.068 31.5692 110.485 30.7062C110.901 29.8335 111.483 29.1209 112.23 28.5682C112.976 28.0155 113.844 27.5937 114.833 27.3028C115.832 27.0119 116.908 26.8229 118.062 26.7356C119.313 26.6386 120.316 26.5223 121.073 26.3865C121.839 26.2411 122.391 26.0423 122.731 25.7902C123.07 25.5284 123.24 25.1842 123.24 24.7576V24.6994C123.24 24.1176 123.017 23.6716 122.571 23.3613C122.125 23.051 121.553 22.8959 120.855 22.8959C120.089 22.8959 119.463 23.0656 118.978 23.405C118.503 23.7346 118.217 24.2437 118.12 24.9321H110.732C110.829 23.5746 111.26 22.3238 112.026 21.1797C112.802 20.0258 113.932 19.1047 115.415 18.4163C116.899 17.7181 118.751 17.3691 120.971 17.3691C122.571 17.3691 124.006 17.5582 125.276 17.9363C126.546 18.3048 127.627 18.8235 128.519 19.4925C129.411 20.1519 130.09 20.9276 130.556 21.8196C131.031 22.702 131.268 23.6619 131.268 24.6994V40H123.763V36.8584H123.589C123.143 37.6923 122.6 38.3662 121.96 38.8801C121.33 39.394 120.607 39.7673 119.793 40C118.988 40.2327 118.101 40.3491 117.131 40.3491ZM119.749 35.2876C120.36 35.2876 120.932 35.1616 121.465 34.9095C122.008 34.6574 122.45 34.2938 122.789 33.8187C123.128 33.3436 123.298 32.7666 123.298 32.0879V30.2262C123.085 30.3135 122.857 30.3959 122.614 30.4735C122.382 30.5511 122.13 30.6238 121.858 30.6917C121.596 30.7595 121.315 30.8225 121.015 30.8807C120.724 30.9389 120.418 30.9922 120.098 31.0407C119.478 31.1377 118.969 31.2977 118.571 31.5207C118.183 31.734 117.892 32.0006 117.698 32.3206C117.514 32.6309 117.422 32.98 117.422 33.3678C117.422 33.9884 117.64 34.4635 118.077 34.7931C118.513 35.1228 119.07 35.2876 119.749 35.2876ZM142.125 27.4337V40H134.096V17.66H141.717V21.9069H141.95C142.435 20.4913 143.288 19.381 144.51 18.5763C145.741 17.7715 147.176 17.3691 148.815 17.3691C150.396 17.3691 151.768 17.7327 152.931 18.4599C154.104 19.1774 155.011 20.1664 155.651 21.4269C156.3 22.6874 156.62 24.1273 156.611 25.7466V40H148.582V27.4337C148.592 26.3284 148.311 25.4606 147.739 24.8303C147.176 24.2 146.391 23.8849 145.383 23.8849C144.723 23.8849 144.146 24.0304 143.652 24.3212C143.167 24.6024 142.794 25.0097 142.532 25.543C142.27 26.0666 142.134 26.6968 142.125 27.4337Z" fill="#023047"/>
<path d="M24.3283 56.8465C24.2986 56.5472 24.1664 56.3091 23.9318 56.1322C23.6972 55.9554 23.4021 55.867 23.0467 55.867C22.7964 55.867 22.5758 55.9099 22.3849 55.9957C22.1959 56.0814 22.047 56.2005 21.9385 56.3528C21.8317 56.5034 21.7783 56.675 21.7783 56.8676C21.7783 57.0094 21.8089 57.1337 21.8702 57.2405C21.9315 57.3473 22.0138 57.4392 22.1171 57.5162C22.2221 57.5915 22.3377 57.6563 22.4637 57.7106C22.5915 57.7648 22.7202 57.8104 22.8498 57.8471L23.417 58.0099C23.5886 58.0572 23.7602 58.1176 23.9318 58.1912C24.1033 58.2647 24.26 58.3575 24.4019 58.4695C24.5454 58.5798 24.6601 58.7155 24.7459 58.8766C24.8334 59.0359 24.8772 59.2276 24.8772 59.4517C24.8772 59.7389 24.8028 59.9971 24.654 60.2264C24.5051 60.4558 24.2916 60.6379 24.0132 60.7727C23.7348 60.9058 23.4013 60.9723 23.0126 60.9723C22.6467 60.9723 22.3289 60.9119 22.0593 60.7911C21.7897 60.6685 21.5778 60.4996 21.4238 60.2842C21.2697 60.0689 21.183 59.8194 21.1638 59.5358H21.668C21.6855 59.7476 21.7555 59.9271 21.8781 60.0741C22.0006 60.2212 22.16 60.3332 22.356 60.4103C22.5521 60.4856 22.771 60.5232 23.0126 60.5232C23.2805 60.5232 23.5186 60.4786 23.7269 60.3893C23.937 60.2982 24.1016 60.1722 24.2206 60.0111C24.3414 59.8483 24.4019 59.6592 24.4019 59.4438C24.4019 59.2618 24.3546 59.1094 24.26 58.9869C24.1655 58.8626 24.0333 58.7584 23.8635 58.6744C23.6954 58.5903 23.5002 58.5159 23.2778 58.4511L22.6344 58.2621C22.2125 58.136 21.8851 57.9618 21.6522 57.7394C21.4194 57.5171 21.3029 57.2335 21.3029 56.8886C21.3029 56.5997 21.38 56.3458 21.5341 56.127C21.6899 55.9064 21.9 55.7348 22.1643 55.6122C22.4305 55.4879 22.729 55.4258 23.0599 55.4258C23.3943 55.4258 23.6902 55.4871 23.9475 55.6096C24.2049 55.7322 24.4089 55.9011 24.5594 56.1165C24.7117 56.3301 24.7932 56.5734 24.8037 56.8465H24.3283ZM30.4683 58.1912C30.4683 58.7514 30.3686 59.239 30.169 59.6539C29.9694 60.0671 29.6945 60.3875 29.3443 60.6151C28.9959 60.841 28.595 60.9539 28.1415 60.9539C27.6881 60.9539 27.2863 60.841 26.9361 60.6151C26.5877 60.3875 26.3137 60.0671 26.1141 59.6539C25.9163 59.239 25.8174 58.7514 25.8174 58.1912C25.8174 57.6309 25.9163 57.1442 26.1141 56.731C26.3137 56.3161 26.5886 55.9957 26.9388 55.7698C27.2889 55.5422 27.6898 55.4284 28.1415 55.4284C28.595 55.4284 28.9959 55.5422 29.3443 55.7698C29.6945 55.9957 29.9694 56.3161 30.169 56.731C30.3686 57.1442 30.4683 57.6309 30.4683 58.1912ZM29.9904 58.1912C29.9904 57.7097 29.9098 57.2974 29.7488 56.9542C29.5877 56.6093 29.368 56.3458 29.0896 56.1637C28.8112 55.9817 28.4952 55.8906 28.1415 55.8906C27.7896 55.8906 27.4745 55.9817 27.1961 56.1637C26.9177 56.3458 26.6971 56.6084 26.5343 56.9516C26.3732 57.2947 26.2927 57.7079 26.2927 58.1912C26.2927 58.6726 26.3732 59.0849 26.5343 59.4281C26.6954 59.7712 26.9151 60.0347 27.1935 60.2186C27.4719 60.4007 27.7879 60.4917 28.1415 60.4917C28.4952 60.4917 28.8112 60.4007 29.0896 60.2186C29.3697 60.0365 29.5903 59.7739 29.7514 59.4307C29.9125 59.0858 29.9921 58.6726 29.9904 58.1912ZM31.656 60.8804V55.5019H34.7681V55.9431H32.1471V57.9679H34.5238V58.4091H32.1471V60.8804H31.656ZM35.6636 55.9431V55.5019H39.5635V55.9431H37.8591V60.8804H37.368V55.9431H35.6636ZM41.604 60.8804L40.1308 55.5019H40.6297L41.8483 60.1267H41.8903L43.1089 55.5019H43.6761L44.8947 60.1267H44.9367L46.1552 55.5019H46.6568L45.1835 60.8804H44.6583L43.4109 56.3187H43.3767L42.1293 60.8804H41.604ZM47.1335 60.8804H46.6188L48.5753 55.5019H49.1005L51.057 60.8804H50.5423L48.8563 56.1401H48.8195L47.1335 60.8804ZM47.5038 58.8188H50.172V59.26H47.5038V58.8188ZM51.9788 60.8804V55.5019H53.7147C54.0964 55.5019 54.415 55.5711 54.6706 55.7094C54.928 55.846 55.1215 56.0359 55.251 56.2793C55.3823 56.5209 55.448 56.7984 55.448 57.1118C55.448 57.4252 55.3823 57.7018 55.251 57.9417C55.1215 58.1815 54.9289 58.3689 54.6733 58.5037C54.4177 58.6385 54.1008 58.7059 53.7226 58.7059H52.244V58.2568H53.7095C53.9896 58.2568 54.2224 58.2104 54.408 58.1176C54.5954 58.0248 54.7346 57.8926 54.8256 57.7211C54.9184 57.5495 54.9648 57.3464 54.9648 57.1118C54.9648 56.8772 54.9184 56.6723 54.8256 56.4973C54.7328 56.3204 54.5927 56.1839 54.4054 56.0876C54.2198 55.9913 53.9852 55.9431 53.7016 55.9431H52.4699V60.8804H51.9788ZM54.3503 58.4538L55.6739 60.8804H55.1066L53.7961 58.4538H54.3503ZM56.6442 60.8804V55.5019H59.7641V55.9431H57.1353V57.9679H59.5987V58.4091H57.1353V60.4392H59.8167V60.8804H56.6442ZM64.6909 60.8804H63.1152V55.5019H64.7854C65.2984 55.5019 65.737 55.6087 66.1011 55.8223C66.4671 56.0359 66.7472 56.3423 66.9415 56.7415C67.1359 57.1407 67.233 57.6195 67.233 58.178C67.233 58.7418 67.1332 59.2259 66.9336 59.6303C66.7358 60.033 66.4469 60.342 66.067 60.5573C65.6888 60.7727 65.2301 60.8804 64.6909 60.8804ZM63.6063 60.4392H64.662C65.1242 60.4392 65.5111 60.3481 65.8228 60.166C66.1344 59.984 66.3681 59.724 66.524 59.3861C66.6798 59.0482 66.7577 58.6455 66.7577 58.178C66.7559 57.7141 66.6789 57.3149 66.5266 56.9805C66.376 56.6461 66.1519 56.3896 65.8543 56.211C65.5584 56.0324 65.1925 55.9431 64.7565 55.9431H63.6063V60.4392ZM68.4233 60.8804V55.5019H71.5433V55.9431H68.9144V57.9679H71.3778V58.4091H68.9144V60.4392H71.5958V60.8804H68.4233ZM74.8943 60.8804V55.5019H76.6302C77.0119 55.5019 77.3305 55.5755 77.5861 55.7225C77.8435 55.8679 78.037 56.0657 78.1665 56.3161C78.2978 56.5664 78.3635 56.8483 78.3635 57.1617C78.3635 57.4751 78.2987 57.7578 78.1691 58.0099C78.0396 58.2603 77.847 58.459 77.5914 58.6061C77.3358 58.7514 77.018 58.8241 76.6381 58.8241H75.2724V58.3829H76.6249C76.9068 58.3829 77.1405 58.3303 77.3261 58.2253C77.5117 58.1185 77.65 57.9732 77.7411 57.7893C77.8339 57.6055 77.8803 57.3963 77.8803 57.1617C77.8803 56.9271 77.8339 56.7179 77.7411 56.534C77.65 56.3502 77.5108 56.2058 77.3235 56.1007C77.1379 55.9957 76.9024 55.9431 76.6171 55.9431H75.3854V60.8804H74.8943ZM79.5164 60.8804V55.5019H80.0075V60.4392H82.5706V60.8804H79.5164ZM84.0236 60.8804H83.5088L85.4653 55.5019H85.9906L87.9471 60.8804H87.4324L85.7463 56.1401H85.7096L84.0236 60.8804ZM84.3939 58.8188H87.0621V59.26H84.3939V58.8188ZM93.0577 55.5019V60.8804H92.5797L89.402 56.3765H89.36V60.8804H88.8689V55.5019H89.3442L92.5324 60.0111H92.5744V55.5019H93.0577ZM94.4876 60.8804V55.5019H97.6075V55.9431H94.9787V57.9679H97.4421V58.4091H94.9787V60.4392H97.6601V60.8804H94.4876ZM100.917 55.5019H101.408V59.3808C101.406 59.731 101.343 60.0234 101.219 60.258C101.094 60.4908 100.923 60.665 100.704 60.7806C100.485 60.8961 100.234 60.9539 99.9501 60.9539C99.6717 60.9539 99.4231 60.9023 99.2043 60.799C98.9854 60.6957 98.813 60.5503 98.6869 60.363C98.5626 60.1757 98.5004 59.956 98.5004 59.7038H98.9837C98.9837 59.8632 99.0257 60.0041 99.1097 60.1267C99.1937 60.2475 99.3084 60.342 99.4537 60.4103C99.6008 60.4786 99.7663 60.5127 99.9501 60.5127C100.141 60.5127 100.308 60.4724 100.452 60.3919C100.597 60.3114 100.711 60.1879 100.793 60.0216C100.875 59.8535 100.917 59.6399 100.917 59.3808V55.5019ZM102.844 60.8804H102.329L104.286 55.5019H104.811L106.768 60.8804H106.253L104.567 56.1401H104.53L102.844 60.8804ZM103.214 58.8188H105.883V59.26H103.214V58.8188ZM107.689 55.5019H108.257L110.208 60.1871H110.255L112.207 55.5019H112.774V60.8804H112.312V56.5393H112.27L110.455 60.8804H110.008L108.194 56.5393H108.152V60.8804H107.689V55.5019ZM114.204 60.8804V55.5019H117.324V55.9431H114.695V57.9679H117.158V58.4091H114.695V60.4392H117.376V60.8804H114.204ZM122.783 55.5019V60.8804H122.306L119.128 56.3765H119.086V60.8804H118.595V55.5019H119.07L122.258 60.0111H122.3V55.5019H122.783ZM123.888 55.9431V55.5019H127.788V55.9431H126.083V60.8804H125.592V55.9431H123.888ZM133.079 58.1912C133.079 58.7514 132.979 59.239 132.779 59.6539C132.58 60.0671 132.305 60.3875 131.955 60.6151C131.606 60.841 131.205 60.9539 130.752 60.9539C130.299 60.9539 129.897 60.841 129.547 60.6151C129.198 60.3875 128.924 60.0671 128.725 59.6539C128.527 59.239 128.428 58.7514 128.428 58.1912C128.428 57.6309 128.527 57.1442 128.725 56.731C128.924 56.3161 129.199 55.9957 129.549 55.7698C129.899 55.5422 130.3 55.4284 130.752 55.4284C131.205 55.4284 131.606 55.5422 131.955 55.7698C132.305 55.9957 132.58 56.3161 132.779 56.731C132.979 57.1442 133.079 57.6309 133.079 58.1912ZM132.601 58.1912C132.601 57.7097 132.52 57.2974 132.359 56.9542C132.198 56.6093 131.978 56.3458 131.7 56.1637C131.422 55.9817 131.106 55.8906 130.752 55.8906C130.4 55.8906 130.085 55.9817 129.807 56.1637C129.528 56.3458 129.308 56.6084 129.145 56.9516C128.984 57.2947 128.903 57.7079 128.903 58.1912C128.903 58.6726 128.984 59.0849 129.145 59.4281C129.306 59.7712 129.526 60.0347 129.804 60.2186C130.082 60.4007 130.398 60.4917 130.752 60.4917C131.106 60.4917 131.422 60.4007 131.7 60.2186C131.98 60.0365 132.201 59.7739 132.362 59.4307C132.523 59.0858 132.603 58.6726 132.601 58.1912ZM52.8129 69.8804V64.5019H55.9329V64.9431H53.304V66.9679H55.7674V67.4091H53.304V69.4392H55.9854V69.8804H52.8129ZM60.1243 65.8465C60.0945 65.5472 59.9623 65.3091 59.7277 65.1322C59.4931 64.9554 59.1981 64.867 58.8427 64.867C58.5923 64.867 58.3717 64.9099 58.1809 64.9957C57.9918 65.0814 57.843 65.2005 57.7344 65.3528C57.6276 65.5034 57.5742 65.675 57.5742 65.8676C57.5742 66.0094 57.6049 66.1337 57.6661 66.2405C57.7274 66.3473 57.8097 66.4392 57.913 66.5162C58.0181 66.5915 58.1336 66.6563 58.2597 66.7106C58.3875 66.7648 58.5162 66.8104 58.6457 66.8471L59.213 67.0099C59.3845 67.0572 59.5561 67.1176 59.7277 67.1912C59.8993 67.2647 60.056 67.3575 60.1978 67.4695C60.3414 67.5798 60.456 67.7155 60.5418 67.8766C60.6294 68.0359 60.6731 68.2276 60.6731 68.4517C60.6731 68.7389 60.5987 68.9971 60.4499 69.2264C60.3011 69.4558 60.0875 69.6379 59.8091 69.7727C59.5307 69.9058 59.1972 69.9723 58.8085 69.9723C58.4426 69.9723 58.1249 69.9119 57.8552 69.7911C57.5856 69.6685 57.3738 69.4996 57.2197 69.2842C57.0656 69.0689 56.979 68.8194 56.9597 68.5358H57.4639C57.4814 68.7476 57.5515 68.9271 57.674 69.0741C57.7966 69.2212 57.9559 69.3332 58.152 69.4103C58.3481 69.4856 58.5669 69.5232 58.8085 69.5232C59.0764 69.5232 59.3145 69.4786 59.5229 69.3893C59.733 69.2982 59.8975 69.1722 60.0166 69.0111C60.1374 68.8483 60.1978 68.6592 60.1978 68.4438C60.1978 68.2618 60.1505 68.1094 60.056 67.9869C59.9614 67.8626 59.8292 67.7584 59.6594 67.6744C59.4913 67.5903 59.2961 67.5159 59.0738 67.4511L58.4304 67.2621C58.0084 67.136 57.681 66.9618 57.4482 66.7394C57.2153 66.5171 57.0989 66.2335 57.0989 65.8886C57.0989 65.5997 57.1759 65.3458 57.33 65.127C57.4858 64.9064 57.6959 64.7348 57.9603 64.6122C58.2264 64.4879 58.5249 64.4258 58.8558 64.4258C59.1902 64.4258 59.4861 64.4871 59.7435 64.6096C60.0008 64.7322 60.2048 64.9011 60.3554 65.1165C60.5077 65.3301 60.5891 65.5734 60.5996 65.8465H60.1243ZM61.5293 64.9431V64.5019H65.4292V64.9431H63.7248V69.8804H63.2337V64.9431H61.5293ZM66.5348 69.8804V64.5019H68.2707C68.6524 64.5019 68.971 64.5711 69.2266 64.7094C69.484 64.846 69.6775 65.0359 69.807 65.2793C69.9383 65.5209 70.004 65.7984 70.004 66.1118C70.004 66.4252 69.9383 66.7018 69.807 66.9417C69.6775 67.1815 69.4849 67.3689 69.2293 67.5037C68.9736 67.6385 68.6567 67.7059 68.2786 67.7059H66.8V67.2568H68.2654C68.5456 67.2568 68.7784 67.2104 68.964 67.1176C69.1513 67.0248 69.2905 66.8926 69.3816 66.7211C69.4744 66.5495 69.5208 66.3464 69.5208 66.1118C69.5208 65.8772 69.4744 65.6723 69.3816 65.4973C69.2888 65.3204 69.1487 65.1839 68.9614 65.0876C68.7758 64.9913 68.5412 64.9431 68.2576 64.9431H67.0259V69.8804H66.5348ZM68.9062 67.4538L70.2298 69.8804H69.6626L68.3521 67.4538H68.9062ZM71.2081 69.8804H70.6934L72.6499 64.5019H73.1751L75.1316 69.8804H74.6169L72.9309 65.1401H72.8941L71.2081 69.8804ZM71.5784 67.8188H74.2466V68.26H71.5784V67.8188ZM75.0994 64.9431V64.5019H78.9993V64.9431H77.2949V69.8804H76.8038V64.9431H75.0994ZM80.105 69.8804V64.5019H83.2249V64.9431H80.5961V66.9679H83.0594V67.4091H80.5961V69.4392H83.2774V69.8804H80.105ZM81.4469 63.9426L82.1193 62.7503H82.6734L81.8671 63.9426H81.4469ZM88.2173 66.1827C88.1682 66.0041 88.0965 65.8369 88.0019 65.6811C87.9074 65.5235 87.7901 65.3861 87.65 65.2688C87.5117 65.1497 87.3515 65.0569 87.1694 64.9904C86.9891 64.9239 86.7877 64.8906 86.5654 64.8906C86.2152 64.8906 85.9018 64.9817 85.6252 65.1637C85.3486 65.3458 85.1297 65.6084 84.9687 65.9516C84.8093 66.2947 84.7297 66.7079 84.7297 67.1912C84.7297 67.6726 84.8102 68.0849 84.9713 68.4281C85.1324 68.7712 85.353 69.0347 85.6331 69.2186C85.915 69.4007 86.2371 69.4917 86.5995 69.4917C86.9304 69.4917 87.2228 69.4182 87.4767 69.2711C87.7305 69.124 87.9284 68.9139 88.0702 68.6408C88.2138 68.3677 88.2838 68.0429 88.2803 67.6665L88.4379 67.7164H86.7151V67.2752H88.7583V67.7164C88.7583 68.1751 88.6655 68.5717 88.4799 68.9061C88.2943 69.2405 88.0396 69.4987 87.7157 69.6808C87.3918 69.8629 87.0197 69.9539 86.5995 69.9539C86.1303 69.9539 85.7198 69.841 85.3678 69.6151C85.0159 69.3875 84.7419 69.0671 84.5459 68.6539C84.3515 68.239 84.2543 67.7514 84.2543 67.1912C84.2543 66.7692 84.3104 66.3884 84.4224 66.0488C84.5345 65.7091 84.6929 65.4185 84.8978 65.1769C85.1044 64.9353 85.3486 64.7505 85.6305 64.6227C85.9123 64.4932 86.224 64.4284 86.5654 64.4284C86.8595 64.4284 87.1283 64.4748 87.3716 64.5676C87.6167 64.6604 87.8321 64.7882 88.0177 64.951C88.205 65.1121 88.3582 65.2985 88.4773 65.5104C88.5981 65.7205 88.6795 65.9446 88.7215 66.1827H88.2173ZM90.4686 64.5019V69.8804H89.9775V64.5019H90.4686ZM96.1109 66.1827H95.6172C95.5804 65.9989 95.5139 65.829 95.4176 65.6732C95.3231 65.5156 95.204 65.3782 95.0605 65.2609C94.9169 65.1436 94.7541 65.0526 94.572 64.9878C94.3899 64.923 94.1929 64.8906 93.9811 64.8906C93.6414 64.8906 93.3315 64.979 93.0514 65.1559C92.773 65.3327 92.5498 65.5927 92.3817 65.9358C92.2154 66.2772 92.1323 66.6957 92.1323 67.1912C92.1323 67.6901 92.2154 68.1103 92.3817 68.4517C92.5498 68.7931 92.773 69.0522 93.0514 69.2291C93.3315 69.4042 93.6414 69.4917 93.9811 69.4917C94.1929 69.4917 94.3899 69.4593 94.572 69.3945C94.7541 69.3297 94.9169 69.2396 95.0605 69.124C95.204 69.0067 95.3231 68.8693 95.4176 68.7117C95.5139 68.5541 95.5804 68.3834 95.6172 68.1996H96.1109C96.0672 68.4465 95.9849 68.6767 95.8641 68.8903C95.745 69.1021 95.5927 69.2877 95.4071 69.447C95.2233 69.6064 95.0114 69.7307 94.7716 69.82C94.5317 69.9093 94.2682 69.9539 93.9811 69.9539C93.5294 69.9539 93.1285 69.841 92.7783 69.6151C92.4281 69.3875 92.1533 69.0671 91.9537 68.6539C91.7558 68.2408 91.6569 67.7532 91.6569 67.1912C91.6569 66.6291 91.7558 66.1416 91.9537 65.7284C92.1533 65.3152 92.4281 64.9957 92.7783 64.7698C93.1285 64.5422 93.5294 64.4284 93.9811 64.4284C94.2682 64.4284 94.5317 64.473 94.7716 64.5623C95.0114 64.6499 95.2233 64.7742 95.4071 64.9353C95.5927 65.0946 95.745 65.2802 95.8641 65.492C95.9849 65.7039 96.0672 65.9341 96.1109 66.1827ZM101.674 67.1912C101.674 67.7514 101.574 68.239 101.374 68.6539C101.175 69.0671 100.9 69.3875 100.55 69.6151C100.201 69.841 99.8005 69.9539 99.347 69.9539C98.8936 69.9539 98.4918 69.841 98.1416 69.6151C97.7932 69.3875 97.5192 69.0671 97.3196 68.6539C97.1218 68.239 97.0229 67.7514 97.0229 67.1912C97.0229 66.6309 97.1218 66.1442 97.3196 65.731C97.5192 65.3161 97.7941 64.9957 98.1443 64.7698C98.4944 64.5422 98.8953 64.4284 99.347 64.4284C99.8005 64.4284 100.201 64.5422 100.55 64.7698C100.9 64.9957 101.175 65.3161 101.374 65.731C101.574 66.1442 101.674 66.6309 101.674 67.1912ZM101.196 67.1912C101.196 66.7097 101.115 66.2974 100.954 65.9542C100.793 65.6093 100.573 65.3458 100.295 65.1637C100.017 64.9817 99.7007 64.8906 99.347 64.8906C98.9951 64.8906 98.68 64.9817 98.4016 65.1637C98.1232 65.3458 97.9026 65.6084 97.7398 65.9516C97.5787 66.2947 97.4982 66.7079 97.4982 67.1912C97.4982 67.6726 97.5787 68.0849 97.7398 68.4281C97.9009 68.7712 98.1206 69.0347 98.399 69.2186C98.6774 69.4007 98.9934 69.4917 99.347 69.4917C99.7007 69.4917 100.017 69.4007 100.295 69.2186C100.575 69.0365 100.796 68.7739 100.957 68.4307C101.118 68.0858 101.198 67.6726 101.196 67.1912Z" fill="#023047"/>
</svg>
