<svg width="93" height="29" viewBox="0 0 93 29" fill="none" xmlns="http://www.w3.org/2000/svg">
<path d="M1.12293 23V5.57758H5.85284V19.1888H12.8967V23H1.12293ZM20.5482 23.2382C19.153 23.2382 17.9507 22.9716 16.9412 22.4385C15.9374 21.8998 15.1632 21.1285 14.6188 20.1246C14.08 19.1151 13.8106 17.9071 13.8106 16.5006C13.8106 15.1508 14.0828 13.9712 14.6273 12.9617C15.1717 11.9522 15.9402 11.1667 16.9327 10.6052C17.9252 10.0438 19.0963 9.76304 20.4461 9.76304C21.4329 9.76304 22.3262 9.91617 23.1258 10.2224C23.9255 10.5287 24.6089 10.9739 25.176 11.558C25.7432 12.1365 26.1799 12.8398 26.4861 13.6678C26.7924 14.4958 26.9455 15.4287 26.9455 16.4666V17.5555H15.2738V14.9694H22.6239C22.6182 14.595 22.5218 14.2661 22.3347 13.9825C22.1532 13.6933 21.9065 13.4693 21.5946 13.3105C21.2883 13.146 20.9395 13.0638 20.5482 13.0638C20.1682 13.0638 19.8194 13.146 19.5018 13.3105C19.1842 13.4693 18.929 13.6905 18.7362 13.974C18.549 14.2576 18.4498 14.5894 18.4384 14.9694V17.7597C18.4384 18.1793 18.5263 18.5537 18.7022 18.8826C18.878 19.2115 19.1303 19.4696 19.4593 19.6567C19.7882 19.8439 20.1852 19.9375 20.6503 19.9375C20.9735 19.9375 21.2685 19.8921 21.535 19.8014C21.8072 19.7106 22.0398 19.5802 22.2326 19.41C22.4254 19.2342 22.5672 19.0244 22.6579 18.7805H26.9455C26.798 19.6879 26.4492 20.4762 25.8991 21.1455C25.349 21.809 24.6202 22.3251 23.7128 22.6937C22.8111 23.0567 21.7562 23.2382 20.5482 23.2382ZM34.5672 28.1723C33.2571 28.1723 32.1342 27.9851 31.1984 27.6108C30.2683 27.2422 29.5452 26.7318 29.0291 26.0795C28.5187 25.433 28.2323 24.6901 28.1699 23.8507H32.6957C32.741 24.1286 32.8545 24.3526 33.036 24.5228C33.2174 24.6929 33.45 24.8148 33.7335 24.8886C34.0228 24.968 34.346 25.0077 34.7033 25.0077C35.3102 25.0077 35.8121 24.8602 36.2091 24.5653C36.6117 24.2704 36.8131 23.7373 36.8131 22.966V20.7541H36.677C36.5068 21.1965 36.2459 21.5737 35.8943 21.8856C35.5427 22.1918 35.1202 22.4272 34.6268 22.5917C34.1334 22.7505 33.5917 22.8299 33.0019 22.8299C32.0718 22.8299 31.2154 22.6143 30.4328 22.1833C29.6558 21.7523 29.032 21.0689 28.5613 20.1331C28.0962 19.1974 27.8637 17.9752 27.8637 16.4666C27.8637 14.89 28.1075 13.6082 28.5953 12.6214C29.0887 11.6346 29.7239 10.9115 30.5009 10.4521C31.2835 9.99273 32.1059 9.76304 32.9679 9.76304C33.6144 9.76304 34.1816 9.87647 34.6693 10.1033C35.157 10.3245 35.5654 10.6223 35.8943 10.9966C36.2233 11.3652 36.4728 11.7707 36.6429 12.2131H36.745V9.93318H41.4409V22.966C41.4409 24.0719 41.1545 25.0105 40.5817 25.7818C40.0146 26.5588 39.2149 27.1514 38.1827 27.5598C37.1505 27.9681 35.9454 28.1723 34.5672 28.1723ZM34.7374 19.4951C35.1684 19.4951 35.537 19.376 35.8433 19.1378C36.1552 18.8939 36.3934 18.548 36.5579 18.0999C36.728 17.6462 36.8131 17.1018 36.8131 16.4666C36.8131 15.8201 36.728 15.2671 36.5579 14.8077C36.3934 14.3427 36.1552 13.9882 35.8433 13.7443C35.537 13.4948 35.1684 13.37 34.7374 13.37C34.3063 13.37 33.9377 13.4948 33.6314 13.7443C33.3309 13.9882 33.0983 14.3427 32.9339 14.8077C32.7751 15.2671 32.6957 15.8201 32.6957 16.4666C32.6957 17.1131 32.7751 17.6632 32.9339 18.117C33.0983 18.565 33.3309 18.9081 33.6314 19.1463C33.9377 19.3788 34.3063 19.4951 34.7374 19.4951ZM43.1715 23V5.57758H50.6917C51.9848 5.57758 53.1163 5.83279 54.0861 6.34321C55.0559 6.85364 55.8102 7.57106 56.3489 8.49549C56.8877 9.41993 57.1571 10.5003 57.1571 11.7367C57.1571 12.9844 56.8792 14.0648 56.3234 14.9779C55.7733 15.8909 54.9991 16.5942 54.001 17.0876C53.0085 17.581 51.8487 17.8277 50.5216 17.8277H46.0299V14.1527H49.5688C50.1246 14.1527 50.5982 14.0563 50.9895 13.8634C51.3865 13.6649 51.6899 13.3842 51.8997 13.0212C52.1153 12.6583 52.223 12.2301 52.223 11.7367C52.223 11.2376 52.1153 10.8122 51.8997 10.4606C51.6899 10.1033 51.3865 9.8311 50.9895 9.64394C50.5982 9.45112 50.1246 9.35471 49.5688 9.35471H47.9014V23H43.1715ZM63.0668 5.57758V23H58.3709V5.57758H63.0668ZM68.5107 23.2042C67.677 23.2042 66.9398 23.0681 66.2989 22.7958C65.6637 22.5179 65.1646 22.0983 64.8017 21.5368C64.4387 20.9753 64.2572 20.2607 64.2572 19.393C64.2572 18.6784 64.3792 18.0688 64.623 17.564C64.8669 17.0536 65.2072 16.6367 65.6439 16.3135C66.0806 15.9902 66.5881 15.7435 67.1666 15.5734C67.7508 15.4032 68.3803 15.2926 69.0552 15.2416C69.7868 15.1849 70.3738 15.1168 70.8161 15.0374C71.2642 14.9523 71.5875 14.8361 71.7859 14.6886C71.9844 14.5355 72.0837 14.3342 72.0837 14.0846V14.0506C72.0837 13.7103 71.9533 13.4494 71.6924 13.2679C71.4315 13.0865 71.0969 12.9957 70.6885 12.9957C70.2405 12.9957 69.8747 13.095 69.5911 13.2935C69.3132 13.4863 69.1459 13.784 69.0892 14.1867H64.7676C64.8244 13.3927 65.0767 12.6611 65.5248 11.9919C65.9785 11.317 66.6392 10.7782 67.5069 10.3756C68.3746 9.96721 69.4579 9.76304 70.7566 9.76304C71.6924 9.76304 72.5317 9.87364 73.2747 10.0948C74.0176 10.3103 74.65 10.6137 75.1718 11.0051C75.6935 11.3907 76.0905 11.8444 76.3627 12.3662C76.6406 12.8823 76.7796 13.4438 76.7796 14.0506V23H72.3899V21.1625H72.2879C72.027 21.6502 71.7094 22.0444 71.3351 22.345C70.9664 22.6455 70.5439 22.8639 70.0675 23C69.5968 23.1361 69.0779 23.2042 68.5107 23.2042ZM70.042 20.2437C70.3993 20.2437 70.7339 20.17 71.0458 20.0225C71.3634 19.8751 71.6215 19.6624 71.82 19.3845C72.0185 19.1066 72.1177 18.7692 72.1177 18.3722V17.2833C71.993 17.3343 71.8597 17.3825 71.7179 17.4279C71.5818 17.4733 71.4343 17.5158 71.2755 17.5555C71.1224 17.5952 70.9579 17.6321 70.7821 17.6661C70.612 17.7001 70.4333 17.7313 70.2462 17.7597C69.8832 17.8164 69.5855 17.91 69.3529 18.0404C69.1261 18.1652 68.9559 18.3211 68.8425 18.5083C68.7348 18.6898 68.6809 18.8939 68.6809 19.1208C68.6809 19.4838 68.8085 19.7617 69.0637 19.9545C69.3189 20.1473 69.645 20.2437 70.042 20.2437ZM83.1295 15.6499V23H78.4336V9.93318H82.8913V12.4172H83.0274C83.311 11.5892 83.8101 10.9399 84.5247 10.4691C85.2449 9.99841 86.0843 9.76304 87.0428 9.76304C87.9672 9.76304 88.7697 9.97572 89.4502 10.4011C90.1365 10.8208 90.6668 11.3992 91.0411 12.1365C91.421 12.8738 91.6082 13.716 91.6025 14.6631V23H86.9066V15.6499C86.9123 15.0034 86.7478 14.4958 86.4132 14.1272C86.0843 13.7585 85.6249 13.5742 85.0351 13.5742C84.6494 13.5742 84.312 13.6593 84.0228 13.8294C83.7392 13.9939 83.5208 14.2321 83.3677 14.544C83.2146 14.8503 83.1352 15.2189 83.1295 15.6499Z" fill="white"/>
</svg>
